<svg width="30" height="30" viewBox="0 0 30 30" fill="none" xmlns="http://www.w3.org/2000/svg">
<path d="M17.5 3C15.8585 3 14.233 3.32332 12.7165 3.95151C11.1999 4.57969 9.8219 5.50043 8.66117 6.66117C6.31696 9.00537 5 12.1848 5 15.5C5 21.025 8.5875 25.7125 13.55 27.375C14.175 27.475 14.375 27.0875 14.375 26.75C14.375 26.4625 14.375 25.675 14.375 24.6375C10.9125 25.3875 10.175 22.9625 10.175 22.9625C9.6 21.5125 8.7875 21.125 8.7875 21.125C7.65 20.35 8.875 20.375 8.875 20.375C10.125 20.4625 10.7875 21.6625 10.7875 21.6625C11.875 23.5625 13.7125 23 14.425 22.7C14.5375 21.8875 14.8625 21.3375 15.2125 21.025C12.4375 20.7125 9.525 19.6375 9.525 14.875C9.525 13.4875 10 12.375 10.8125 11.4875C10.6875 11.175 10.25 9.875 10.9375 8.1875C10.9375 8.1875 11.9875 7.85 14.375 9.4625C15.3625 9.1875 16.4375 9.05 17.5 9.05C18.5625 9.05 19.6375 9.1875 20.625 9.4625C23.0125 7.85 24.0625 8.1875 24.0625 8.1875C24.75 9.875 24.3125 11.175 24.1875 11.4875C25 12.375 25.475 13.4875 25.475 14.875C25.475 19.65 22.55 20.7 19.7625 21.0125C20.2125 21.4 20.625 22.1625 20.625 23.325C20.625 25 20.625 26.35 20.625 26.75C20.625 27.0875 20.825 27.4875 21.4625 27.375C26.425 25.7 30 21.025 30 15.5C30 13.8585 29.6767 12.233 29.0485 10.7165C28.4203 9.19989 27.4996 7.8219 26.3388 6.66117C25.1781 5.50043 23.8001 4.57969 22.2835 3.95151C20.767 3.32332 19.1415 3 17.5 3Z" fill="#4D4B4B"/>
</svg>
