<svg width="30" height="30" viewBox="0 0 30 30" fill="none" xmlns="http://www.w3.org/2000/svg">
<path d="M28.0748 7.5C27.1123 7.9375 26.0748 8.225 24.9998 8.3625C26.0998 7.7 26.9498 6.65 27.3498 5.3875C26.3123 6.0125 25.1623 6.45 23.9498 6.7C22.9623 5.625 21.5748 5 19.9998 5C17.0623 5 14.6623 7.4 14.6623 10.3625C14.6623 10.7875 14.7123 11.2 14.7998 11.5875C10.3498 11.3625 6.3873 9.225 3.7498 5.9875C3.2873 6.775 3.0248 7.7 3.0248 8.675C3.0248 10.5375 3.9623 12.1875 5.4123 13.125C4.5248 13.125 3.6998 12.875 2.9748 12.5C2.9748 12.5 2.9748 12.5 2.9748 12.5375C2.9748 15.1375 4.8248 17.3125 7.27481 17.8C6.8248 17.925 6.3498 17.9875 5.8623 17.9875C5.5248 17.9875 5.1873 17.95 4.8623 17.8875C5.5373 20 7.4998 21.575 9.8623 21.6125C8.0373 23.0625 5.7248 23.9125 3.1998 23.9125C2.7748 23.9125 2.3498 23.8875 1.9248 23.8375C4.2998 25.3625 7.1248 26.25 10.1498 26.25C19.9998 26.25 25.4123 18.075 25.4123 10.9875C25.4123 10.75 25.4123 10.525 25.3998 10.2875C26.4498 9.5375 27.3498 8.5875 28.0748 7.5Z" fill="#4D4B4B"/>
</svg>
