<svg width="180" height="301" viewBox="0 0 180 301" fill="none" xmlns="http://www.w3.org/2000/svg">
<path d="M100.487 6.48108C121.675 22.3338 138.925 43.8003 150.712 68.9822C162.498 94.164 168.458 122.285 168.063 150.859C167.668 179.432 160.932 207.577 148.449 232.805C135.967 258.033 118.123 279.566 96.4953 295.499L11.2906 151.155L100.487 6.48108Z" fill="#61D4B3"/>
<path d="M82.6406 166H79.248V154.17H66.3457V166H62.9707V140.406H66.3457V151.41H79.248V140.406H82.6406V166Z" fill="white"/>
<path d="M91.6582 166H88.4062V146.98H91.6582V166ZM88.1426 141.936C88.1426 141.408 88.3008 140.963 88.6172 140.6C88.9453 140.236 89.4258 140.055 90.0586 140.055C90.6914 140.055 91.1719 140.236 91.5 140.6C91.8281 140.963 91.9922 141.408 91.9922 141.936C91.9922 142.463 91.8281 142.902 91.5 143.254C91.1719 143.605 90.6914 143.781 90.0586 143.781C89.4258 143.781 88.9453 143.605 88.6172 143.254C88.3008 142.902 88.1426 142.463 88.1426 141.936Z" fill="white"/>
<path d="M102.188 157.193L100.148 159.32V166H96.8965V139H100.148V155.33L101.889 153.238L107.812 146.98H111.768L104.367 154.926L112.629 166H108.814L102.188 157.193Z" fill="white"/>
<path d="M122.666 166.352C120.088 166.352 117.99 165.508 116.373 163.82C114.756 162.121 113.947 159.854 113.947 157.018V156.42C113.947 154.533 114.305 152.852 115.02 151.375C115.746 149.887 116.754 148.727 118.043 147.895C119.344 147.051 120.75 146.629 122.262 146.629C124.734 146.629 126.656 147.443 128.027 149.072C129.398 150.701 130.084 153.033 130.084 156.068V157.422H117.199C117.246 159.297 117.791 160.814 118.834 161.975C119.889 163.123 121.225 163.697 122.842 163.697C123.99 163.697 124.963 163.463 125.76 162.994C126.557 162.525 127.254 161.904 127.852 161.131L129.838 162.678C128.244 165.127 125.854 166.352 122.666 166.352ZM122.262 149.301C120.949 149.301 119.848 149.781 118.957 150.742C118.066 151.691 117.516 153.027 117.305 154.75H126.832V154.504C126.738 152.852 126.293 151.574 125.496 150.672C124.699 149.758 123.621 149.301 122.262 149.301Z" fill="white"/>
<path d="M143.057 149.898C142.564 149.816 142.031 149.775 141.457 149.775C139.324 149.775 137.877 150.684 137.115 152.5V166H133.863V146.98H137.027L137.08 149.178C138.146 147.479 139.658 146.629 141.615 146.629C142.248 146.629 142.729 146.711 143.057 146.875V149.898Z" fill="white"/>
</svg>
