<svg width="262" height="348" viewBox="0 0 262 348" fill="none" xmlns="http://www.w3.org/2000/svg">
<path d="M261.97 327.422C234.858 341.601 204.451 348.674 173.712 347.95C142.973 347.225 112.95 338.73 86.5686 323.291C60.187 307.852 38.3466 285.996 23.1754 259.852C8.00428 233.708 0.0198221 204.169 3.68501e-05 174.112C-0.0197484 144.055 7.92582 114.505 23.0625 88.3427C38.1993 62.18 60.0109 40.2964 86.3721 24.8242C112.733 9.35191 142.745 0.818709 173.483 0.0560255C204.221 -0.706658 234.637 6.32718 261.768 20.4722L178 174L261.97 327.422Z" fill="#F8DD7D"/>
<path d="M62.7969 145.424C62.4805 148.131 61.4785 150.223 59.791 151.699C58.1152 153.164 55.8828 153.896 53.0938 153.896C50.0703 153.896 47.6445 152.812 45.8164 150.645C44 148.477 43.0918 145.576 43.0918 141.943V139.482C43.0918 137.104 43.5137 135.012 44.3574 133.207C45.2129 131.402 46.4199 130.02 47.9785 129.059C49.5371 128.086 51.3418 127.6 53.3926 127.6C56.1113 127.6 58.291 128.361 59.9316 129.885C61.5723 131.396 62.5273 133.494 62.7969 136.178H59.4043C59.1113 134.139 58.4727 132.662 57.4883 131.748C56.5156 130.834 55.1504 130.377 53.3926 130.377C51.2363 130.377 49.543 131.174 48.3125 132.768C47.0938 134.361 46.4844 136.629 46.4844 139.57V142.049C46.4844 144.826 47.0645 147.035 48.2246 148.676C49.3848 150.316 51.0078 151.137 53.0938 151.137C54.9688 151.137 56.4043 150.715 57.4004 149.871C58.4082 149.016 59.0762 147.533 59.4043 145.424H62.7969ZM66.0488 143.859C66.0488 141.996 66.4121 140.32 67.1387 138.832C67.877 137.344 68.8965 136.195 70.1973 135.387C71.5098 134.578 73.0039 134.174 74.6797 134.174C77.2695 134.174 79.3613 135.07 80.9551 136.863C82.5605 138.656 83.3633 141.041 83.3633 144.018V144.246C83.3633 146.098 83.0059 147.762 82.291 149.238C81.5879 150.703 80.5742 151.846 79.25 152.666C77.9375 153.486 76.4258 153.896 74.7148 153.896C72.1367 153.896 70.0449 153 68.4395 151.207C66.8457 149.414 66.0488 147.041 66.0488 144.088V143.859ZM69.3184 144.246C69.3184 146.355 69.8047 148.049 70.7773 149.326C71.7617 150.604 73.0742 151.242 74.7148 151.242C76.3672 151.242 77.6797 150.598 78.6523 149.309C79.625 148.008 80.1113 146.191 80.1113 143.859C80.1113 141.773 79.6133 140.086 78.6172 138.797C77.6328 137.496 76.3203 136.846 74.6797 136.846C73.0742 136.846 71.7793 137.484 70.7949 138.762C69.8105 140.039 69.3184 141.867 69.3184 144.246ZM86.6504 143.877C86.6504 140.959 87.3418 138.615 88.7246 136.846C90.1074 135.064 91.918 134.174 94.1562 134.174C96.3828 134.174 98.1465 134.936 99.4473 136.459V126.545H102.699V153.545H99.7109L99.5527 151.506C98.252 153.1 96.4414 153.896 94.1211 153.896C91.918 153.896 90.1191 152.994 88.7246 151.189C87.3418 149.385 86.6504 147.029 86.6504 144.123V143.877ZM89.9023 144.246C89.9023 146.402 90.3477 148.09 91.2383 149.309C92.1289 150.527 93.3594 151.137 94.9297 151.137C96.9922 151.137 98.498 150.211 99.4473 148.359V139.623C98.4746 137.83 96.9805 136.934 94.9648 136.934C93.3711 136.934 92.1289 137.549 91.2383 138.779C90.3477 140.01 89.9023 141.832 89.9023 144.246ZM115.654 153.896C113.076 153.896 110.979 153.053 109.361 151.365C107.744 149.666 106.936 147.398 106.936 144.562V143.965C106.936 142.078 107.293 140.396 108.008 138.92C108.734 137.432 109.742 136.271 111.031 135.439C112.332 134.596 113.738 134.174 115.25 134.174C117.723 134.174 119.645 134.988 121.016 136.617C122.387 138.246 123.072 140.578 123.072 143.613V144.967H110.188C110.234 146.842 110.779 148.359 111.822 149.52C112.877 150.668 114.213 151.242 115.83 151.242C116.979 151.242 117.951 151.008 118.748 150.539C119.545 150.07 120.242 149.449 120.84 148.676L122.826 150.223C121.232 152.672 118.842 153.896 115.654 153.896ZM115.25 136.846C113.938 136.846 112.836 137.326 111.945 138.287C111.055 139.236 110.504 140.572 110.293 142.295H119.82V142.049C119.727 140.396 119.281 139.119 118.484 138.217C117.688 137.303 116.609 136.846 115.25 136.846ZM136.045 137.443C135.553 137.361 135.02 137.32 134.445 137.32C132.312 137.32 130.865 138.229 130.104 140.045V153.545H126.852V134.525H130.016L130.068 136.723C131.135 135.023 132.646 134.174 134.604 134.174C135.236 134.174 135.717 134.256 136.045 134.42V137.443Z" fill="white"/>
</svg>
